<?xml version="1.0" encoding="utf-8"?>
<!DOCTYPE svg PUBLIC "-//W3C//DTD SVG 1.1//EN" "http://www.w3.org/Graphics/SVG/1.1/DTD/svg11.dtd">

<svg class="logo-path" version="1.1" xmlns="http://www.w3.org/2000/svg" xmlns:xlink="http://www.w3.org/1999/xlink"
	viewBox="0 0 1262 410" enable-background="new 0 0 1262 410" xml:space="preserve" fill="transparent">
	<g id="aris">
		<path
			d="M1075.651,114.701c0.036-4.908,4.102-8.698,9.287-8.661
				c3.966,0.028,9.219,5.076,9.109,8.753c-0.118,3.963-5.321,8.561-9.657,8.533C1079.656,123.295,1075.616,119.31,1075.651,114.701z" />
		<path
			d="M1156.128,187.716c-11.735-0.526-21.012,4.217-30.104,9.622
				c-6.688,3.977-13.378,7.981-20.284,11.552c-6.899,3.565-14.354,4.85-22.124,3.609c-10.417-1.662-16.866-7.869-20.097-17.681
				c-0.892-2.709-1.594-5.48-2.487-8.586c-4.955,4.573-9.708,8.962-14.464,13.347c-7.854,7.242-15.905,14.297-25.422,19.263
				c-4.198,2.191-8.846,3.831-13.481,4.801c-6.329,1.323-10.354-2.02-10.945-8.559c-0.725-8.029-1.191-16.085-1.675-24.135
				c-0.449-7.499-0.771-15.006-1.159-22.508c-0.023-0.444-0.147-0.885-0.359-2.109c-1.449,1.026-2.788,1.614-3.619,2.622
				c-4.894,5.933-9.703,11.934-14.476,17.964c-6.566,8.299-13.202,16.531-21.469,23.251c-8.366,6.803-17.734,10.439-28.631,8.299
				c-4.541-0.893-8.755-2.685-10.344-8.453c-2.094,1.984-4.092,3.701-5.882,5.611c-4.672,4.985-9.721,9.521-16.153,12.019
				c-2.958,1.148-6.237,1.889-9.399,1.997c-5.491,0.188-8.99-3.563-7.872-8.926c1.119-5.371,2.814-10.781,5.24-15.688
				c5.697-11.525,13.694-21.365,23.995-29.173c5.431-4.117,11.544-6.233,18.463-5.235c1.079,0.156,2.274,0.393,3.125,1
				c0.948,0.677,1.563,1.819,2.323,2.76c-1.021,0.635-1.973,1.476-3.082,1.842c-0.914,0.302-2.043,0.193-3.026,0.004
				c-4.55-0.878-8.671,0.392-11.891,3.369c-5.079,4.697-10.32,9.421-14.401,14.941c-4.415,5.972-7.662,12.823-11.22,19.398
				c-0.798,1.474-0.943,3.383-1.078,5.115c-0.211,2.74,0.822,3.751,3.222,2.631c3.895-1.817,8.105-3.596,11.138-6.487
				c5.974-5.694,10.772-12.431,14.255-20.054c0.785-1.719,2.502-3.251,4.158-4.271c2.082-1.282,4.544-1.949,7.249-3.047
				c-0.458,3.325-0.935,6.216-1.232,9.123c-0.235,2.3-0.414,4.627-0.331,6.933c0.148,4.125,2.021,6.104,6.195,6.361
				c7.376,0.454,14.081-1.004,19.637-6.508c10.188-10.096,18.766-21.5,27.482-32.814c2.699-3.503,5.65-6.912,8.965-9.819
				c5.094-4.467,9.584-3.728,13.816,1.559c2.729,3.407,3.9,7.373,4.1,11.598c0.603,12.783,1.065,25.573,1.586,38.359
				c0.041,1.005,0.104,2.009,0.164,3.144c5.673-0.337,10.777-2.063,15.01-5.475c9.229-7.441,18.197-15.202,27.29-22.812
				c3.906-3.269,7.655-6.776,11.836-9.653c5.229-3.598,7.885-2.492,9.898,3.51c1.353,4.031,2.345,8.201,3.933,12.134
				c3.468,8.589,9.362,12.24,17.697,11.018c2.808-0.412,5.718-1.118,8.227-2.389c6.847-3.469,13.571-7.194,20.221-11.033
				c8.277-4.779,16.564-9.485,25.836-12.125c6.38-1.817,12.64-2.471,18.997,0.489c1.372,0.639,3.783-0.122,5.353-0.938
				c2.247-1.168,4.158-2.979,6.52-4.744c0.773,4.326,0.992,8.021-0.978,11.901c-1.376,2.71-1.704,5.989-2.277,9.055
				c-0.354,1.9-0.296,3.878-0.42,5.821c-0.436,6.873-4.083,11.275-10.4,13.724c-4.519,1.75-9.072,3.417-14.004,2.869
				c-6.051-0.673-8.823-4.736-6.54-10.399c1.488-3.689,3.92-7.119,6.461-10.23C1149.735,193.362,1152.94,190.789,1156.128,187.716z
				 M1149.09,208.711c4.387-0.487,7.711-1.839,10.294-4.315c1.858-1.78,3.147-4.204,4.452-6.478c0.33-0.574-0.253-1.674-0.417-2.531
				c-0.77,0.168-1.746,0.095-2.275,0.545c-3.49,2.979-6.938,6.014-10.269,9.167C1150.115,205.817,1149.869,207.079,1149.09,208.711z" />
	</g>
	<g id="p">
		<path d="M697.383,160.662c1.334-2.073,2.54-4.243,4.021-6.205
				c14.244-18.87,31.823-34.067,51.452-47.104c36.671-24.356,75.979-43.208,117.779-56.891c17.229-5.64,34.427-11.459,51.889-16.294
				c20.757-5.747,41.994-9.223,63.596-9.659c3.989-0.081,8.099,0.806,11.983,1.867c4.245,1.16,6.539,4.527,6.929,8.851
				c1.096,12.139-2.482,23.098-9.021,33.153c-8.149,12.534-18.593,23.113-29.327,33.37c-26.32,25.15-55.633,46.446-86.16,66.125
				c-20.898,13.472-42.317,26.032-65.231,35.84c-4.084,1.747-8.227,3.427-12.474,4.692c-2.604,0.776-4.226,2.274-5.229,4.534
				c-1.915,4.312-3.65,8.702-5.483,13.051c-1.826,4.332-3.886,8.495-8.684,10.307c-1.274,0.48-2.62,0.774-4.694,1.374
				c0.359-1.928,0.433-3.337,0.887-4.61c9.472-26.598,19.342-53.061,28.324-79.821c3.724-11.09,5.531-22.819,8.295-34.237
				c0.605-2.503,1.382-5.008,2.468-7.33c0.445-0.953,1.918-1.426,2.924-2.116c0.37,0.98,1.138,2,1.045,2.934
				c-0.646,6.446-1.214,12.917-2.286,19.3c-3.137,18.673-8.727,36.727-14.236,54.794c-0.512,1.678-0.867,3.405-1.268,5.115
				c-0.056,0.24,0.051,0.519,0.133,1.208c1.385-0.42,2.748-0.618,3.902-1.218c11.175-5.81,22.484-11.389,33.433-17.602
				c27.914-15.844,55.151-32.786,81.026-51.824c18.931-13.929,37.118-28.734,52.722-46.448c5.839-6.629,11.375-13.558,14.745-21.785
				c1.765-4.308,2.491-9.052,3.57-13.626c0.646-2.741-1.04-3.813-3.406-3.763c-5.834,0.123-11.694,0.127-17.492,0.698
				c-36.771,3.624-71.653,14.827-106.599,26.11c-41.895,13.526-81.198,32.274-118.336,55.732
				c-10.715,6.769-19.886,15.467-29.066,24.132c-5.796,5.47-11.725,10.802-17.666,16.113c-1.023,0.915-2.414,1.419-3.635,2.113
				C697.935,161.247,697.659,160.954,697.383,160.662z" />
	</g>
	<g id="j">
		<path d="M424.205,366.765c3.934-3.196,7.428-6.427,11.329-9.051
				c2.13-1.434,4.897-2.377,7.466-2.626c18.832-1.827,36.513-7.159,52.629-17.142c24.225-15.004,46.702-32.266,66.252-53.083
				c21.792-23.205,37.549-50.063,46.815-80.529c1.857-6.105,1.715-12.801,2.718-19.189c0.494-3.146,1.367-6.295,5.35-8.2
				c0.222,2.176,0.553,3.867,0.541,5.556c-0.119,17.36-3.938,33.813-10.552,49.938c-11.488,28.01-29.294,51.432-50.372,72.652
				c-18.066,18.188-38.035,33.898-60.645,46.183c-17.873,9.711-36.961,14.559-57.192,15.319c-4.448,0.167-8.894,0.438-13.341,0.647
				C425.054,367.247,424.897,367.102,424.205,366.765z" />
		<path
			d="M619.816,126.848c-5.132-0.136-8.403-3.144-8.351-7.676
				c0.056-4.74,3.691-8.666,7.993-8.633c4.677,0.037,8.77,4.468,8.674,9.393C628.051,124.238,624.756,126.978,619.816,126.848z" />
	</g>
	<g id="a_1_">
		<path
			d="M510.089,180.219c-1.092,1.038-1.769,2.051-2.714,2.507
				c-2.409,1.161-4.949,2.05-7.419,3.089c-14.821,6.239-25.088,16.786-30.161,32.146c-1.316,3.99-0.773,4.487,3.342,4.627
				c4.605,0.157,8.629-1.487,12.096-4.202c8.023-6.284,15.775-12.914,23.808-19.187c3.482-2.719,7.294-5.061,11.15-7.229
				c1.142-0.642,3.436-0.688,4.304,0.051c0.829,0.704,1.055,3.007,0.575,4.225c-4.133,10.496-8.484,20.906-12.781,31.338
				c-0.14,0.338-0.313,0.732-0.593,0.93c-1.065,0.753-2.179,1.436-3.275,2.145c-0.578-1.187-1.741-2.433-1.628-3.549
				c0.397-3.921,1.099-7.828,1.961-11.679c0.438-1.954,1.469-3.776,1.905-6.06c-2.149,1.732-4.213,3.59-6.467,5.173
				c-6.278,4.41-12.462,8.995-19.02,12.952c-4.95,2.986-10.621,3.786-16.388,2.394c-6.143-1.481-7.896-4.287-6.959-10.48
				c1.165-7.708,4.945-14.139,9.835-19.931c7.729-9.156,16.827-16.482,28.696-19.577C503.31,179.13,506.438,178.278,510.089,180.219z" />
	</g>
	<g id="m">
		<path
			d="M305.777,212.057c0.967-0.48,1.948-0.936,2.899-1.447
				c14.273-7.67,28.371-15.697,42.89-22.871c6.983-3.451,14.618-5.882,22.214-7.717c9.507-2.297,14.732,1.646,17.438,12.271
				c0.351,1.377-0.228,3.129-0.757,4.565c-1.465,3.976-3.133,7.876-4.997,12.489c1.638-0.781,2.736-1.304,3.834-1.828
				c15.45-7.396,30.81-14.99,46.387-22.107c8.422-3.848,17.276-6.696,26.563-7.78c2.104-0.245,4.274-0.303,6.372-0.071
				c1.041,0.114,2.568,0.904,2.817,1.713c0.257,0.836-0.479,2.482-1.289,3.05c-2.863,2.003-5.776,4.105-8.979,5.411
				c-4.78,1.947-9.885,3.08-14.741,4.857c-23.204,8.488-45.562,18.726-66.279,32.331c-2.625,1.724-5.358,3.39-8.256,4.546
				c-1.499,0.598-4.086,0.683-5.053-0.215c-0.98-0.91-1.271-3.639-0.644-5.013c2.262-4.948,5.03-9.666,7.624-14.462
				c1.894-3.5,3.894-6.946,5.683-10.499c0.694-1.38,1.146-2.958,1.355-4.493c0.718-5.257-0.925-6.668-6.057-5.312
				c-15.797,4.173-30.226,11.566-44.624,19.022c-8.716,4.513-17.367,9.154-26.141,13.554c-2.107,1.056-4.548,1.617-6.9,1.975
				c-2.797,0.425-4.217-0.956-3.622-3.713c0.598-2.767,1.818-5.408,2.867-8.063c1.424-3.609,3.193-7.102,4.357-10.788
				c1.228-3.89-0.128-5.433-3.883-4.204c-9.929,3.247-19.737,6.864-29.588,10.351c-12.035,4.26-24.058,8.551-36.102,12.782
				c-1.443,0.507-2.988,0.726-4.654,1.117c0.003-2.827,1.722-4.082,3.484-4.984c3.208-1.641,6.555-3.016,9.87-4.438
				c12.511-5.364,24.922-10.987,37.596-15.938c6.758-2.64,13.881-4.62,21.016-5.939c6.618-1.223,9.205,1.2,9.325,7.974
				c0.065,3.689-1.095,7.405-1.755,11.099c-0.139,0.779-0.51,1.518-0.774,2.274C305.441,211.722,305.609,211.89,305.777,212.057z" />
	</g>
	<g id="a">
		<path d="M73.513,211.591c0.328-1.082,0.425-2.317,1.024-3.222
				c2.549-3.853,4.892-7.925,7.947-11.347c16.063-17.988,31.983-36.126,48.633-53.563c10.672-11.177,22.15-21.669,33.965-31.643
				c8.641-7.294,18.722-12.652,29.892-15.477c1.166-0.295,2.357-0.518,3.549-0.681c7.196-0.982,11.605,1.661,13.797,8.576
				c3.268,10.307,3.468,20.995,3.419,31.665c-0.076,16.739-1.847,33.302-5.757,49.606c-0.19,0.795-0.259,1.619-0.494,3.141
				c1.701-0.396,3.138-0.48,4.347-1.049c9.893-4.654,19.717-9.453,29.61-14.105c19.622-9.228,39.391-18.103,60.297-24.12
				c1.953-0.563,3.973-0.901,5.962-1.339c2.188-0.482,2.793,0.474,2.612,2.57c-0.452,5.246-3.003,8.66-8.012,10.542
				c-13.092,4.917-26.166,9.892-39.155,15.072c-18.785,7.492-36.851,16.506-54.589,26.202c-4.828,2.639-7.482,6.442-9.387,11.703
				c-6.837,18.889-13.909,37.713-21.607,56.265c-9.831,23.694-20.421,47.073-30.546,70.647c-3.471,8.08-6.527,16.337-9.767,24.516
				c-2.077,5.242-5.531,9.383-10.069,12.667c-3.715,2.687-7.426,5.38-11.137,8.069c-0.235-0.178-0.471-0.355-0.705-0.533
				c1.486-4.453,2.795-8.974,4.486-13.346c12.371-31.976,26.1-63.362,40.382-94.532c8.673-18.927,16.136-38.407,24.11-57.653
				c0.476-1.147,0.654-2.419,1.177-4.421c-2.947,1.517-5.26,2.591-7.463,3.856c-24.839,14.265-49.621,28.629-74.505,42.813
				c-9.979,5.688-20.168,11.007-30.273,16.472c-0.892,0.481-1.843,0.961-2.821,1.14c-0.813,0.149-1.706-0.146-2.563-0.244
				c0.212-0.943,0.141-2.133,0.7-2.775c1.015-1.166,2.327-2.13,3.649-2.964c12.854-8.118,25.719-16.217,38.612-24.271
				c23.193-14.486,46.414-28.931,69.605-43.422c1.804-1.128,3.466-2.482,5.192-3.733c4.987-3.612,7.919-8.354,9.725-14.373
				c7.268-24.228,9.222-48.928,7.634-74.024c-0.116-1.843-0.346-3.705-0.787-5.492c-0.975-3.948-2.972-5.385-6.711-3.807
				c-6.373,2.69-12.824,5.476-18.625,9.186c-14.224,9.096-26.129,21.038-38.121,32.781c-21.406,20.962-42.628,42.112-63.937,63.174
				c-0.743,0.734-1.596,1.357-2.397,2.032C74.111,211.965,73.812,211.778,73.513,211.591z" />
	</g>

	<style> 
	svg {
    width: 100px;
    height: auto;
    stroke: black;
    stroke-width: 2;
}

.logo-path
/* g */
    {
    stroke-dasharray: 2600;
    stroke-dashoffset: 2600;
    stroke: black;
    stroke-width: 2;

}

#a {
    /* (A)maj */
    animation: letter-animation 3s linear forwards;
    animation-delay: 1s;
}

#m {
    /* A(m)aj */
    animation: letter-animation 3s linear forwards;
    animation-delay: 1s;
}

#a_1_ {
    /* Am(a)j */
    animation: letter-animation 3s linear forwards;
    animation-delay: 1.5s;
}

#j {
    /* Ama(j) */
    animation: letter-animation 3s linear forwards;
    animation-delay: 2s;
}

#p {
    /* P */
    animation: letter-animation 3s linear forwards;
    animation-delay: 2.5s;
}

#aris {
    /* aris */
    animation: letter-animation 3s linear forwards;
    animation-delay: 3s;

}
 @keyframes letter-animation {
    0% {
        stroke-dashoffset: 2600;
        fill: transparent;
    }
    80% {
        fill: black;
    }
    100% {
        stroke-dashoffset: 0;
        fill: black;
    }
} 
	
	</style>
</svg>
